<svg width="30" height="30" viewBox="0 0 30 30" fill="none" xmlns="http://www.w3.org/2000/svg">
<path fill-rule="evenodd" clip-rule="evenodd" d="M20.2771 29.1667V18.1946H23.9605L24.5115 13.9191H20.2757V11.1892C20.2757 9.95104 20.62 9.10671 22.3965 9.10671H24.6603V5.28171C23.564 5.16392 22.462 5.10716 21.3595 5.11171C18.0955 5.11171 15.8614 7.10496 15.8614 10.7642V13.9191H12.1667V18.1946H15.86V29.1667H2.39737C1.53321 29.1667 0.833374 28.4669 0.833374 27.6027V2.39737C0.833374 1.53321 1.53321 0.833374 2.39737 0.833374H27.6027C28.4669 0.833374 29.1667 1.53321 29.1667 2.39737V27.6027C29.1667 28.4669 28.4669 29.1667 27.6027 29.1667H20.2771Z" fill="black"/>
</svg>
