<svg width="30" height="30" viewBox="0 0 30 30" fill="none" xmlns="http://www.w3.org/2000/svg">
<path d="M9.05004 0.833374H20.95C25.4834 0.833374 29.1667 4.51671 29.1667 9.05004V20.95C29.1667 23.1292 28.301 25.2192 26.7601 26.7601C25.2192 28.301 23.1292 29.1667 20.95 29.1667H9.05004C4.51671 29.1667 0.833374 25.4834 0.833374 20.95V9.05004C0.833374 6.87085 1.69906 4.7809 3.23998 3.23998C4.7809 1.69906 6.87085 0.833374 9.05004 0.833374ZM8.76671 3.66671C7.4141 3.66671 6.1169 4.20403 5.16046 5.16046C4.20403 6.1169 3.66671 7.4141 3.66671 8.76671V21.2334C3.66671 24.0525 5.94754 26.3334 8.76671 26.3334H21.2334C22.586 26.3334 23.8832 25.7961 24.8396 24.8396C25.7961 23.8832 26.3334 22.586 26.3334 21.2334V8.76671C26.3334 5.94754 24.0525 3.66671 21.2334 3.66671H8.76671ZM22.4375 5.79171C22.9072 5.79171 23.3576 5.97828 23.6897 6.31037C24.0218 6.64247 24.2084 7.09289 24.2084 7.56254C24.2084 8.03219 24.0218 8.48261 23.6897 8.81471C23.3576 9.1468 22.9072 9.33337 22.4375 9.33337C21.9679 9.33337 21.5175 9.1468 21.1854 8.81471C20.8533 8.48261 20.6667 8.03219 20.6667 7.56254C20.6667 7.09289 20.8533 6.64247 21.1854 6.31037C21.5175 5.97828 21.9679 5.79171 22.4375 5.79171ZM15 7.91671C16.8787 7.91671 18.6803 8.66299 20.0087 9.99137C21.3371 11.3198 22.0834 13.1214 22.0834 15C22.0834 16.8787 21.3371 18.6803 20.0087 20.0087C18.6803 21.3371 16.8787 22.0834 15 22.0834C13.1214 22.0834 11.3198 21.3371 9.99137 20.0087C8.66299 18.6803 7.91671 16.8787 7.91671 15C7.91671 13.1214 8.66299 11.3198 9.99137 9.99137C11.3198 8.66299 13.1214 7.91671 15 7.91671ZM15 10.75C13.8729 10.75 12.7919 11.1978 11.9948 11.9948C11.1978 12.7919 10.75 13.8729 10.75 15C10.75 16.1272 11.1978 17.2082 11.9948 18.0052C12.7919 18.8023 13.8729 19.25 15 19.25C16.1272 19.25 17.2082 18.8023 18.0052 18.0052C18.8023 17.2082 19.25 16.1272 19.25 15C19.25 13.8729 18.8023 12.7919 18.0052 11.9948C17.2082 11.1978 16.1272 10.75 15 10.75Z" fill="black"/>
</svg>
