<svg width="26" height="27" viewBox="0 0 26 27" fill="none" xmlns="http://www.w3.org/2000/svg">
<path fill-rule="evenodd" clip-rule="evenodd" d="M2.375 0.59375C1.20139 0.59375 0.25 1.54514 0.25 2.71875V23.9688C0.25 25.1423 1.20139 26.0938 2.375 26.0938H23.625C24.7986 26.0938 25.75 25.1423 25.75 23.9688V2.71875C25.75 1.54514 24.7986 0.59375 23.625 0.59375H2.375ZM8.07108 6.26427C8.07905 7.61896 7.06503 8.45369 5.86174 8.44771C4.72818 8.44173 3.74006 7.53927 3.74604 6.26627C3.75201 5.06896 4.6983 4.10673 5.92749 4.13462C7.1746 4.16252 8.07905 5.07693 8.07108 6.26427ZM13.3962 10.1729H9.82626H9.82426V22.2993H13.5974V22.0164C13.5974 21.4783 13.597 20.9399 13.5966 20.4014C13.5954 18.9652 13.5941 17.5275 13.6015 16.0917C13.6035 15.743 13.6194 15.3805 13.709 15.0477C14.0456 13.8046 15.1634 13.0018 16.4105 13.1991C17.2113 13.3245 17.7412 13.7887 17.9643 14.5438C18.1018 15.0158 18.1636 15.5239 18.1696 16.016C18.1857 17.5001 18.1834 18.9842 18.1812 20.4684C18.1803 20.9923 18.1795 21.5165 18.1795 22.0404V22.2974H21.9647V22.0065C21.9647 21.3662 21.9644 20.726 21.964 20.0858C21.9632 18.4857 21.9624 16.8856 21.9666 15.2849C21.9686 14.5617 21.891 13.8485 21.7136 13.1492C21.4487 12.1093 20.9009 11.2486 20.0104 10.6272C19.3788 10.1849 18.6855 9.89997 17.9106 9.8681C17.8223 9.86443 17.7334 9.85963 17.644 9.8548C17.2477 9.83338 16.845 9.81162 16.4662 9.88802C15.3824 10.1052 14.4303 10.6012 13.711 11.4757C13.6274 11.576 13.5457 11.6779 13.4237 11.8299L13.3962 11.8643V10.1729ZM4.04899 22.3033H7.80426V10.1808H4.04899V22.3033Z" fill="black"/>
</svg>
